<svg width="32" height="24" viewBox="0 0 32 24" fill="none" xmlns="http://www.w3.org/2000/svg">
<path d="M0.953836 24V17.0966C0.953836 15.1364 1.33736 13.1335 2.1044 11.0881C2.87145 9.04261 3.88352 7.11435 5.14062 5.30327C6.39773 3.49218 7.76136 1.9794 9.23153 0.764914L15.2401 4.3125C14.0469 6.1875 13.0668 8.14773 12.2997 10.1932C11.554 12.2386 11.1811 14.5185 11.1811 17.0327V24H0.953836ZM17.0938 24V17.0966C17.0938 15.1364 17.4773 13.1335 18.2443 11.0881C19.0114 9.04261 20.0234 7.11435 21.2805 5.30327C22.5376 3.49218 23.9013 1.9794 25.3714 0.764914L31.38 4.3125C30.1868 6.1875 29.2067 8.14773 28.4396 10.1932C27.6939 12.2386 27.321 14.5185 27.321 17.0327V24H17.0938Z" fill="white"/>
</svg>
