<svg width="18" height="13" viewBox="0 0 18 13" fill="none" xmlns="http://www.w3.org/2000/svg">
<path d="M0.645597 13V9.37784C0.645597 8.33617 0.840909 7.25308 1.23153 6.12855C1.634 4.99219 2.1785 3.92093 2.86506 2.91477C3.56345 1.89678 4.3447 1.03859 5.20881 0.340197L8.19176 2.27557C7.49337 3.32907 6.90743 4.42992 6.43395 5.57812C5.9723 6.71449 5.7474 7.96922 5.75923 9.34233V13H0.645597ZM9.64773 13V9.37784C9.64773 8.33617 9.84304 7.25308 10.2337 6.12855C10.6361 4.99219 11.1806 3.92093 11.8672 2.91477C12.5656 1.89678 13.3468 1.03859 14.2109 0.340197L17.1939 2.27557C16.4955 3.32907 15.9096 4.42992 15.4361 5.57812C14.9744 6.71449 14.7495 7.96922 14.7614 9.34233V13H9.64773Z" fill="url(#paint0_linear_1_14)"/>
<defs>
<linearGradient id="paint0_linear_1_14" x1="-2.92258" y1="6" x2="20.0772" y2="6.49615" gradientUnits="userSpaceOnUse">
<stop stop-color="#BCFE08"/>
<stop offset="1" stop-color="#86F969"/>
</linearGradient>
</defs>
</svg>
