<svg width="30" height="30" viewBox="0 0 30 30" fill="none" xmlns="http://www.w3.org/2000/svg">
<path d="M15 2.5C8.1 2.5 2.5 8.1 2.5 15C2.5 21.9 8.1 27.5 15 27.5C21.9 27.5 27.5 21.9 27.5 15C27.5 8.1 21.9 2.5 15 2.5ZM15 7.5C17.05 7.5 18.75 9.2 18.75 11.25C18.75 13.3 17.05 15 15 15C12.95 15 11.25 13.3 11.25 11.25C11.25 9.2 12.95 7.5 15 7.5ZM15 23.75C12.25 23.75 9.8 22.4 8.5 20.25C8.525 18.025 12.75 16.875 15 16.875C17.25 16.875 21.475 18.025 21.5 20.25C20.2 22.4 17.75 23.75 15 23.75Z" fill="#000"/>
</svg>
